<?xml version="1.0" standalone="no"?>
<!DOCTYPE svg PUBLIC "-//W3C//DTD SVG 20010904//EN"
 "http://www.w3.org/TR/2001/REC-SVG-20010904/DTD/svg10.dtd">
<svg version="1.0" xmlns="http://www.w3.org/2000/svg"
 width="736.000000pt" height="736.000000pt" viewBox="0 0 736.000000 736.000000"
 preserveAspectRatio="xMidYMid meet">

<g transform="translate(0.000000,736.000000) scale(0.100000,-0.100000)"
fill="#000000" stroke="none">
<path d="M3745 6324 c-961 -130 -1620 -1016 -1468 -1974 29 -188 80 -339 173
-519 101 -195 288 -431 353 -446 68 -17 127 30 127 102 0 40 -5 50 -54 101
-180 191 -311 433 -371 684 -153 649 126 1307 701 1651 134 80 317 149 489
184 135 27 435 24 568 -5 602 -133 1046 -573 1179 -1170 19 -82 22 -129 22
-307 1 -180 -3 -224 -21 -307 -43 -191 -111 -356 -209 -505 -179 -276 -418
-472 -727 -594 -68 -26 -115 -51 -128 -67 -48 -61 0 -161 78 -162 66 0 295
100 441 194 210 134 418 352 548 571 93 159 161 334 201 523 24 115 27 148 27
342 1 185 -2 231 -22 327 -74 368 -240 668 -515 929 -364 346 -892 516 -1392
448z"/>
<path d="M3885 5677 l-35 -35 0 -150 0 -149 -49 -7 c-63 -8 -157 -56 -206
-103 -21 -21 -50 -63 -64 -93 -22 -47 -26 -68 -26 -150 0 -118 24 -177 97
-245 56 -53 119 -84 305 -148 169 -59 219 -85 270 -140 107 -116 63 -317 -82
-372 -63 -25 -203 -17 -262 13 -54 28 -104 79 -127 128 -28 60 -55 84 -93 84
-40 0 -83 -40 -83 -77 0 -86 136 -219 266 -260 l54 -17 0 -144 0 -144 35 -35
c32 -32 40 -35 77 -30 26 3 51 15 67 31 25 26 26 31 29 170 l3 144 40 5 c53 7
157 58 197 97 104 101 137 255 87 402 -23 67 -93 141 -169 178 -34 17 -138 57
-231 90 -93 33 -187 72 -209 88 -101 73 -132 193 -76 301 41 81 119 116 242
109 121 -7 170 -36 242 -144 19 -29 41 -51 57 -55 38 -10 83 13 99 51 12 30
11 37 -10 77 -41 78 -154 162 -240 180 l-29 5 -3 159 c-3 156 -4 159 -29 185
-16 16 -41 28 -67 31 -37 5 -45 2 -77 -30z"/>
<path d="M1148 3821 l-33 -29 0 -1357 0 -1357 33 -29 c51 -46 134 -32 161 28
16 36 15 2682 -1 2718 -27 59 -109 72 -160 26z"/>
<path d="M1745 3578 c-11 -6 -28 -20 -37 -32 -16 -20 -18 -93 -18 -1109 0
-1207 -5 -1124 66 -1147 42 -14 86 -2 114 32 17 20 19 40 20 161 0 79 4 137 9
137 6 0 351 -104 768 -231 417 -127 781 -238 808 -245 69 -19 136 -17 192 4
41 16 342 184 1103 617 460 261 757 430 1015 575 226 128 301 175 342 216 89
90 130 201 120 323 -18 213 -175 370 -387 388 -121 10 -145 -1 -712 -322
l-520 -295 -805 -2 -805 -3 -29 -33 c-42 -46 -40 -93 5 -138 l34 -34 826 0
827 0 541 307 c452 256 549 307 588 311 196 19 307 -226 164 -360 -16 -15
-175 -109 -354 -211 -179 -101 -678 -384 -1110 -629 -977 -554 -912 -518 -941
-518 -13 0 -112 27 -219 59 -924 281 -1419 432 -1438 441 l-22 10 2 567 3 568
908 5 909 5 24 28 c35 41 33 97 -5 139 l-29 33 -906 3 -907 2 2 159 c0 130 -2
164 -15 184 -28 42 -89 59 -131 35z"/>
</g>
</svg>
